{"title":"Cosmos A Space Time Odyssey S01E01 HDTV x264 AAC E-Subs [GWC].mp","uid":9736190,"size":166684958,"categoryP":"video","categoryS":"tv_shows","magnet":"?xt=urn:btih:1e1402d6641c25a0c1bda0b4164c3ce82350c34f&amp;dn=Cosmos+A+Space+Time+Odyssey+S01E01+HDTV+x264+AAC+E-Subs+%5BGWC%5D.mp&amp;tr=udp%3A%2F%2Ftracker.openbittorrent.com%3A80&amp;tr=udp%3A%2F%2Fopen.demonii.com%3A1337&amp;tr=udp%3A%2F%2Ftracker.coppersurfer.tk%3A6969&amp;tr=udp%3A%2F%2Fexodus.desync.com%3A6969","seeders":2,"leechers":0,"uploader":"canc232","files":1,"time":1394448862,"description":"Cosmos A Space Time Odyssey S01E01 HDTV x264 AAC E-Subs [GWC]\n\n\nSUMMARY :\nA documentary series that explores how we discovered the laws of nature and found our coordinates in space and time. \n\n\nSCREENS : &lt;a href=&quot;\nhttp://i.imgur.com/h8zQQQH.jpg&quot; rel=&quot;nofollow&quot; target=&quot;_NEW&quot;&gt;\nhttp://i.imgur.com/h8zQQQH.jpg&lt;/a&gt; &lt;a href=&quot;\nhttp://i.imgur.com/yqC7Xzw.jpg&quot; rel=&quot;nofollow&quot; target=&quot;_NEW&quot;&gt;\nhttp://i.imgur.com/yqC7Xzw.jpg&lt;/a&gt; &lt;a href=&quot;\nhttp://i.imgur.com/kPVRl5K.jpg&quot; rel=&quot;nofollow&quot; target=&quot;_NEW&quot;&gt;\nhttp://i.imgur.com/kPVRl5K.jpg&lt;/a&gt;\n\n\nMEDIA INFO :\n\nGeneral \nFormat : MPEG-4 \nFormat profile : Base Media \nFile size : 159 MiB \nDuration : 43mn 47s \nOverall bit rate : 508 Kbps \n\nVideo \nFormat : AVC \nFormat profile : &lt;a class=&quot;__cf_email__&quot; href=&quot;/cdn-cgi/l/email-protection&quot; data-cfemail=&quot;3d75545a557d710e130d&quot;&gt;[email&amp;#160;protected]&lt;/a&gt;&lt;script cf-hash='f9e31' type=&quot;text/javascript&quot;&gt;\n/* &lt;![CDATA[ */!function(){try{var t=&quot;currentScript&quot;in document?document.currentScript:function(){for(var t=document.getElementsByTagName(&quot;script&quot;),e=t.length;e--;)if(t[e].getAttribute(&quot;cf-hash&quot;))return t[e]}();if(t&amp;&amp;t.previousSibling){var e,r,n,i,c=t.previousSibling,a=c.getAttribute(&quot;data-cfemail&quot;);if(a){for(e=&quot;&quot;,r=parseInt(a.substr(0,2),16),n=2;a.length-n;n+=2)i=parseInt(a.substr(n,2),16)^r,e+=String.fromCharCode(i);e=document.createTextNode(e),c.parentNode.replaceChild(e,c)}}}catch(u){}}();/* ]]&gt; */&lt;/script&gt; \nFormat settings, CABAC : Yes \nFormat settings, ReFrames : 4 frames \nDuration : 43mn 47s \nBit rate : 444 Kbps \nMaximum bit rate : 5 341 Kbps \nWidth : 720 pixels \nHeight : 404 pixels \nDisplay aspect ratio : 16:9 \nFrame rate mode : Constant \nFrame rate : 23.976 fps \nStream size : 139 MiB (88%) \nTitle : Cosmos A Space Time Odyssey S01E01 HDTV x264 AAC E-Subs [GWC] \nWriting library : x264 core \n\nAudio \nFormat : AAC \nFormat profile : HE-AAC / LC \nDuration : 43mn 47s \nBit rate mode : Variable \nChannel(s) : 2 channels \nSampling rate : 48.0 KHz / 24.0 KHz \nStream size : 18.8 MiB (12%) \nLanguage : English \n\nText \nFormat : Timed Text \nDuration : 43mn 25s \nTitle : English Subtitle by n17t01 \nLanguage : English \n","torrent":{"xt":"urn:btih:1e1402d6641c25a0c1bda0b4164c3ce82350c34f","amp;dn":"Cosmos+A+Space+Time+Odyssey+S01E01+HDTV+x264+AAC+E-Subs+%5BGWC%5D.mp","amp;tr":["udp%3A%2F%2Ftracker.openbittorrent.com%3A80","udp%3A%2F%2Fopen.demonii.com%3A1337","udp%3A%2F%2Ftracker.coppersurfer.tk%3A6969","udp%3A%2F%2Fexodus.desync.com%3A6969"],"infoHash":"1e1402d6641c25a0c1bda0b4164c3ce82350c34f","infoHashBuffer":{"type":"Buffer","data":[30,20,2,214,100,28,37,160,193,189,160,180,22,76,60,232,35,80,195,79]},"announce":[],"urlList":[]}}